<svg id="visual" viewBox="0 0 392 120" width="392" height="120" xmlns="http://www.w3.org/2000/svg" xmlns:xlink="http://www.w3.org/1999/xlink" version="1.1"><path d="M0 3L32.7 3.7C65.3 4.3 130.7 5.7 196 7C261.3 8.3 326.7 9.7 359.3 10.3L392 11L392 0L359.3 0C326.7 0 261.3 0 196 0C130.7 0 65.3 0 32.7 0L0 0Z" fill="#0048b4"></path><path d="M0 26L32.7 27.7C65.3 29.3 130.7 32.7 196 33.8C261.3 35 326.7 34 359.3 33.5L392 33L392 9L359.3 8.3C326.7 7.7 261.3 6.3 196 5C130.7 3.7 65.3 2.3 32.7 1.7L0 1Z" fill="#0058c0"></path><path d="M0 35L32.7 36.2C65.3 37.3 130.7 39.7 196 39.3C261.3 39 326.7 36 359.3 34.5L392 33L392 31L359.3 31.5C326.7 32 261.3 33 196 31.8C130.7 30.7 65.3 27.3 32.7 25.7L0 24Z" fill="#0068cc"></path><path d="M0 39L32.7 39.5C65.3 40 130.7 41 196 41.7C261.3 42.3 326.7 42.7 359.3 42.8L392 43L392 31L359.3 32.5C326.7 34 261.3 37 196 37.3C130.7 37.7 65.3 35.3 32.7 34.2L0 33Z" fill="#0078d6"></path><path d="M0 49L32.7 49.2C65.3 49.3 130.7 49.7 196 49.7C261.3 49.7 326.7 49.3 359.3 49.2L392 49L392 41L359.3 40.8C326.7 40.7 261.3 40.3 196 39.7C130.7 39 65.3 38 32.7 37.5L0 37Z" fill="#0087df"></path><path d="M0 54L32.7 55.3C65.3 56.7 130.7 59.3 196 59.7C261.3 60 326.7 58 359.3 57L392 56L392 47L359.3 47.2C326.7 47.3 261.3 47.7 196 47.7C130.7 47.7 65.3 47.3 32.7 47.2L0 47Z" fill="#0096e7"></path><path d="M0 66L32.7 65.8C65.3 65.7 130.7 65.3 196 65.7C261.3 66 326.7 67 359.3 67.5L392 68L392 54L359.3 55C326.7 56 261.3 58 196 57.7C130.7 57.3 65.3 54.7 32.7 53.3L0 52Z" fill="#00a6ef"></path><path d="M0 74L32.7 74C65.3 74 130.7 74 196 73.5C261.3 73 326.7 72 359.3 71.5L392 71L392 66L359.3 65.5C326.7 65 261.3 64 196 63.7C130.7 63.3 65.3 63.7 32.7 63.8L0 64Z" fill="#00b4f5"></path><path d="M0 92L32.7 94.2C65.3 96.3 130.7 100.7 196 101.3C261.3 102 326.7 99 359.3 97.5L392 96L392 69L359.3 69.5C326.7 70 261.3 71 196 71.5C130.7 72 65.3 72 32.7 72L0 72Z" fill="#00c3f9"></path><path d="M0 96L32.7 98.8C65.3 101.7 130.7 107.3 196 108.7C261.3 110 326.7 107 359.3 105.5L392 104L392 94L359.3 95.5C326.7 97 261.3 100 196 99.3C130.7 98.7 65.3 94.3 32.7 92.2L0 90Z" fill="#00d1fa"></path><path d="M0 109L32.7 110.3C65.3 111.7 130.7 114.3 196 114.7C261.3 115 326.7 113 359.3 112L392 111L392 102L359.3 103.5C326.7 105 261.3 108 196 106.7C130.7 105.3 65.3 99.7 32.7 96.8L0 94Z" fill="#00def9"></path><path d="M0 121L32.7 121C65.3 121 130.7 121 196 121C261.3 121 326.7 121 359.3 121L392 121L392 109L359.3 110C326.7 111 261.3 113 196 112.7C130.7 112.3 65.3 109.7 32.7 108.3L0 107Z" fill="#00ebf7"></path></svg>