<svg xmlns="http://www.w3.org/2000/svg" width="24" height="24" viewBox="0 0 24 24">
  <defs>
    <linearGradient id="grad1" x1="0" y1="0" x2="100%" y2="0%" gradientUnits="userSpaceOnUse">
      <stop offset="0%" stop-color="#EF4236" />
      <stop offset="100%" stop-color="#FBAE40" />
    </linearGradient>
  </defs>
  <g fill="url(#grad1)" stroke="url(#grad1)" stroke-width="0.75">
    <!-- Dendrite connections -->
    <line x1="12" y1="12" x2="3.5" y2="3">
      <animate attributeName="x2" values="3.5; 4.5; 3.5" dur="8s" repeatCount="indefinite" />
      <animate attributeName="y2" values="3; 2; 3" dur="5s" repeatCount="indefinite" />
    </line>
    <circle cx="3.5" cy="3" r="1.25">
      <animate attributeName="cx" values="3.5; 4.5; 3.5" dur="8s" repeatCount="indefinite" />
      <animate attributeName="cy" values="3; 2; 3" dur="5s" repeatCount="indefinite" />
    </circle>

    <line x1="12" y1="12" x2="13" y2="4.5">
      <animate attributeName="x2" values="13; 12; 13" dur="4s" repeatCount="indefinite" />
      <animate attributeName="y2" values="4.5; 3.5; 4.5" dur="5s" repeatCount="indefinite" />
    </line>
    <circle cx="13" cy="4.5" r="1.25">
      <animate attributeName="cx" values="13; 12; 13" dur="4s" repeatCount="indefinite" />
      <animate attributeName="cy" values="4.5; 3.5; 4.5" dur="5s" repeatCount="indefinite" />
    </circle>

    <line x1="12" y1="12" x2="21" y2="6">
      <animate attributeName="x2" values="21; 20.5; 21" dur="8s" repeatCount="indefinite" />
      <animate attributeName="y2" values="6; 5; 6" dur="2s" repeatCount="indefinite" />
    </line>
    <circle cx="21" cy="6" r="2.25">
      <animate attributeName="cx" values="21; 20.5; 21" dur="8s" repeatCount="indefinite" />
      <animate attributeName="cy" values="6; 5; 6" dur="2s" repeatCount="indefinite" />
    </circle>

    <line x1="12" y1="12" x2="19" y2="19">
      <animate attributeName="x2" values="19; 20; 19" dur="8s" repeatCount="indefinite" />
      <animate attributeName="y2" values="19; 18; 19" dur="6s" repeatCount="indefinite" />
    </line>
    <circle cx="19" cy="19" r="2">
      <animate attributeName="cx" values="19; 20; 19" dur="8s" repeatCount="indefinite" />
      <animate attributeName="cy" values="19; 18; 19" dur="6s" repeatCount="indefinite" />
    </circle>

    <line x1="12" y1="12" x2="9.5" y2="20.5">
      <animate attributeName="x2" values="9.5; 8.5; 9.5" dur="4s" repeatCount="indefinite" />
      <animate attributeName="y2" values="20.5; 19.5; 20.5" dur="3s" repeatCount="indefinite" />
    </line>
    <circle cx="9.5" cy="20" r="1.75">
      <animate attributeName="cx" values="9.5; 8.5; 9.5" dur="4s" repeatCount="indefinite" />
      <animate attributeName="cy" values="20; 19; 20" dur="3s" repeatCount="indefinite" />
    </circle>

    <line x1="12" y1="12" x2="2" y2="15">
      <animate attributeName="x2" values="2; 3; 2" dur="9s" repeatCount="indefinite" />
      <animate attributeName="y2" values="15; 14; 15" dur="10s" repeatCount="indefinite" />
    </line>
    <circle cx="2" cy="15" r="1.25">
      <animate attributeName="cx" values="2; 3; 2" dur="9s" repeatCount="indefinite" />
      <animate attributeName="cy" values="15; 14; 15" dur="10s" repeatCount="indefinite" />
    </circle>

    <!-- Central Circle -->
    <circle cx="12" cy="12" r="4">
    </circle>
  </g>

  <!-- Dollar Sign -->
  <g transform="translate(10.357, 9.2) scale(0.011)">
    <path fill="#f5eee5"
      d="M209.2 233.4l-108-31.6C88.7 198.2 80 186.5 80 173.5c0-16.3 13.2-29.5 29.5-29.5h66.3c12.2 0 24.2 3.7 34.2 10.5 6.1 4.1 14.3 3.1 19.5-2l34.8-34c7.1-6.9 6.1-18.4-1.8-24.5C238 74.8 207.4 64.1 176 64V16c0-8.8-7.2-16-16-16h-32c-8.8 0-16 7.2-16 16v48h-2.5C45.8 64-5.4 118.7.5 183.6c4.2 46.1 39.4 83.6 83.8 96.6l102.5 30c12.5 3.7 21.2 15.3 21.2 28.3 0 16.3-13.2 29.5-29.5 29.5h-66.3C100 368 88 364.3 78 357.5c-6.1-4.1-14.3-3.1-19.5 2l-34.8 34c-7.1 6.9-6.1 18.4 1.8 24.5 24.5 19.2 55.1 29.9 86.5 30v48c0 8.8 7.2 16 16 16h32c8.8 0 16-7.2 16-16v-48.2c46.6-.9 90.3-28.6 105.7-72.7 21.5-61.6-14.6-124.8-72.5-141.7z" />
  </g>
</svg>